<?xml version="1.0" encoding="UTF-8"?>
<svg xmlns="http://www.w3.org/2000/svg" xmlns:xlink="http://www.w3.org/1999/xlink" width="500pt" height="500pt" viewBox="0 0 500 500" version="1.1">
<g id="surface2981470">
<path style=" stroke:none;fill-rule:nonzero;fill:rgb(40.392157%,41.568627%,96.862745%);fill-opacity:1;" d="M 154 490 C 74.472656 490 10 425.527344 10 346 L 10 154 C 10 74.472656 74.472656 10 154 10 L 346 10 C 425.527344 10 490 74.472656 490 154 L 490 346 C 490 425.527344 425.527344 490 346 490 Z M 154 490 "/>
<path style=" stroke:none;fill-rule:nonzero;fill:rgb(100%,100%,100%);fill-opacity:1;" d="M 359.925781 370 C 358.671875 370 357.40625 369.703125 356.214844 369.109375 C 351.511719 366.753906 348.082031 362.917969 345.054688 359.546875 C 341.101562 355.140625 338.496094 352.429688 334.996094 352.359375 C 334.945312 352.359375 334.894531 352.359375 334.855469 352.359375 C 332.445312 352.359375 330.398438 353.671875 327.039062 355.953125 C 322.542969 359.007812 316.953125 362.804688 308.371094 362.804688 C 299.375 362.804688 293.976562 359.644531 288.753906 356.582031 C 286.410156 355.203125 283.972656 353.785156 281.050781 352.578125 C 278.925781 351.703125 276.449219 350.714844 273.78125 349.664062 C 271.394531 348.71875 268.859375 347.714844 266.289062 346.667969 C 263.207031 333.316406 251.609375 323.835938 237.09375 323.835938 L 221.242188 323.835938 C 220.605469 323.351562 219.972656 322.84375 219.351562 322.308594 C 218.164062 321.292969 215.914062 319.925781 213.535156 318.476562 C 208.019531 315.125 201.179688 310.960938 197.09375 305.09375 L 197.09375 283.835938 C 197.09375 274.378906 193.070312 266.160156 186.574219 260.726562 C 185.046875 257.441406 183.238281 254.355469 181.171875 252.324219 C 179.460938 250.628906 177.808594 248.679688 176.164062 246.710938 C 174.140625 244.289062 172.226562 242.007812 170.292969 240.464844 C 169.792969 240.0625 169.242188 239.660156 168.675781 239.234375 C 165.308594 236.738281 160.699219 233.320312 159.253906 227.738281 C 158.433594 224.589844 159.089844 221.914062 159.484375 220.296875 C 158.808594 219.738281 157.714844 218.96875 156.910156 218.398438 C 154.976562 217.035156 152.773438 215.484375 151.078125 213.449219 C 149.242188 211.242188 147.605469 208.910156 145.96875 206.574219 C 144.230469 204.082031 142.585938 201.730469 140.738281 199.664062 C 137.347656 195.867188 133.960938 192.082031 131.222656 187.332031 C 128.40625 182.425781 125.75 176.949219 122.863281 170.117188 C 122.203125 168.5625 121.617188 166.796875 121.015625 164.984375 C 120.152344 162.351562 119.167969 159.367188 118.007812 157.933594 C 117.535156 157.347656 116.03125 156.867188 114.4375 156.351562 C 113.609375 156.082031 112.769531 155.816406 111.945312 155.503906 C 111.921875 155.496094 111.902344 155.488281 111.882812 155.484375 C 112.066406 159.074219 112.347656 162.640625 112.871094 166.035156 C 113.386719 169.496094 115.078125 171.710938 117.648438 175.058594 C 118.609375 176.3125 119.589844 177.605469 120.570312 179.03125 C 123.9375 183.921875 124.785156 189.019531 125.519531 193.507812 C 125.96875 196.226562 126.394531 198.796875 127.355469 200.90625 C 128.414062 203.25 130.136719 205.53125 131.949219 207.949219 C 134.152344 210.878906 136.644531 214.199219 138.378906 218.222656 C 140.164062 222.371094 141.351562 225.878906 142.496094 229.277344 C 144.621094 235.558594 146.625 241.480469 152.574219 251.042969 C 152.933594 251.617188 153.371094 252.246094 153.839844 252.910156 C 154.042969 253.203125 154.261719 253.511719 154.484375 253.835938 L 127.09375 253.835938 C 126.214844 253.835938 125.34375 253.871094 124.488281 253.941406 C 123.414062 252.839844 122.539062 251.996094 122.011719 251.558594 C 116.984375 247.4375 115.757812 243.386719 117.929688 237.992188 C 118.226562 237.25 118.445312 236.703125 118.550781 235.875 C 119.484375 228.40625 116.914062 225.34375 114.894531 223.679688 C 110.625 220.15625 109.609375 219.472656 105.117188 217.867188 C 95.667969 214.480469 89.484375 205.5 88.8125 204.492188 C 86.894531 201.597656 87.351562 197.742188 89.898438 195.386719 C 92.449219 193.035156 96.339844 192.886719 99.054688 195.035156 C 100.382812 196.042969 103.226562 197.460938 104.984375 197.144531 C 105.078125 197.121094 105.480469 196.910156 105.71875 196.304688 C 106.136719 195.273438 105.753906 193.753906 104.679688 192.140625 C 103.332031 190.105469 101.828125 188.96875 99.746094 187.382812 C 96.789062 185.136719 93.113281 182.335938 89.492188 176.597656 C 86.921875 172.515625 85.792969 168.0625 84.78125 164.121094 C 84.28125 162.132812 83.789062 160.140625 83.058594 158.269531 C 82.03125 155.589844 80.554688 152.855469 78.996094 149.96875 C 77.207031 146.671875 75.367188 143.25 73.976562 139.53125 C 73.164062 137.355469 73.472656 134.941406 74.789062 133.035156 C 76.101562 131.128906 78.273438 130 80.589844 130 L 116.878906 130 C 119.808594 130 122.433594 131.816406 123.480469 134.554688 C 123.894531 135.640625 124.023438 136.785156 123.894531 137.898438 C 132.761719 141.945312 145.359375 147.738281 149.222656 149.519531 L 165.324219 150.667969 C 165.578125 147 168.632812 144.117188 172.355469 144.117188 L 193.53125 144.117188 C 194.554688 144.117188 195.554688 144.335938 196.488281 144.769531 C 197.164062 145.078125 203.214844 147.953125 207.316406 152.75 C 208.996094 154.71875 210.902344 156.210938 212.90625 157.792969 C 216.429688 160.566406 220.425781 163.699219 223.050781 169.359375 C 223.769531 170.925781 224.347656 172.445312 224.890625 173.878906 C 225.535156 175.558594 225.964844 176.636719 226.347656 177.335938 C 228.457031 173.949219 231.441406 172.425781 235.339844 172.402344 C 243.929688 172.367188 252.125 172.566406 257.214844 176.398438 C 264 181.5 268.0625 187.472656 272.003906 193.261719 L 273.074219 194.835938 C 274.832031 197.398438 276.109375 200.476562 277.460938 203.722656 C 280.164062 210.230469 282.316406 214.839844 285.492188 214.910156 C 286.445312 214.96875 287.53125 214.863281 288.789062 214.777344 C 290.703125 214.648438 292.996094 214.507812 295.933594 214.507812 C 301.453125 214.507812 304.085938 217.382812 305.164062 219.097656 C 308.519531 224.441406 305.46875 230.738281 303.019531 235.804688 C 302.417969 237.039062 301.515625 238.898438 301.359375 239.546875 C 299.898438 251.476562 299.292969 260.863281 299.601562 267.230469 C 299.773438 270.789062 300.328125 272.847656 301.332031 276.597656 C 301.785156 278.261719 302.136719 279.886719 302.503906 281.582031 C 303.046875 284.09375 303.660156 286.960938 304.382812 288.753906 C 305.679688 291.984375 311.765625 297.386719 315.796875 300.957031 C 317.625 302.574219 319.3125 304.078125 320.644531 305.390625 C 321.230469 305.960938 321.980469 306.195312 323.992188 306.71875 C 325.71875 307.167969 327.871094 307.742188 330.152344 308.941406 C 332.292969 310.070312 333.613281 311.53125 334.457031 312.914062 C 335.925781 312.449219 337.445312 311.707031 339.101562 310.902344 C 342.300781 309.351562 345.929688 307.59375 350.480469 307.097656 C 352.550781 306.871094 358.996094 304.605469 365.480469 301.832031 C 365.800781 301.542969 367.28125 299.582031 367.894531 298.203125 C 368.644531 296.515625 368.625 293.976562 368.589844 291.292969 C 368.515625 285.921875 368.410156 276.929688 377.949219 273.394531 C 381.816406 271.953125 385.15625 270.632812 388.078125 269.480469 C 396.222656 266.257812 401.628906 264.117188 406.746094 264.117188 C 406.796875 264.117188 406.847656 264.117188 406.894531 264.117188 C 406.894531 264.117188 406.894531 264.117188 406.902344 264.117188 C 415.132812 264.1875 422.242188 264.25 425.355469 269.925781 C 428.21875 275.152344 424.847656 280.550781 423.40625 282.859375 C 420.554688 287.425781 419.320312 298.761719 419.214844 304.824219 L 419.214844 307.210938 C 419.242188 311.433594 419.285156 316.675781 414.378906 319.105469 C 412.359375 320.09375 409.210938 320.679688 405.25 318.046875 C 405.238281 318.0625 405.214844 318.082031 405.203125 318.097656 C 403.402344 320.109375 400.9375 322.867188 396.914062 324.46875 C 394.664062 325.367188 391.472656 326.042969 386.476562 327.074219 C 385.289062 327.316406 383.769531 327.632812 382.210938 327.972656 C 385.601562 330.625 388.890625 333.464844 390.363281 337.375 C 391.394531 340.105469 391.132812 343.027344 389.660156 345.390625 C 386.714844 350.09375 380.863281 350.628906 374.664062 351.203125 C 373.359375 351.320312 371.582031 351.484375 370.375 351.675781 C 370.140625 352.890625 369.722656 355.410156 369.484375 356.90625 C 368.625 362.277344 367.867188 366.90625 363.546875 369.117188 C 362.410156 369.710938 361.167969 370 359.925781 370 Z M 359.925781 370 "/>
<path style=" stroke:none;fill-rule:nonzero;fill:rgb(100%,100%,100%);fill-opacity:1;" d="M 237.09375 343.835938 L 177.09375 343.835938 L 177.09375 283.835938 C 177.09375 277.835938 173.09375 273.835938 167.09375 273.835938 L 127.09375 273.835938 C 121.09375 273.835938 117.09375 277.835938 117.09375 283.835938 L 117.09375 343.835938 L 57.09375 343.835938 C 51.09375 343.835938 47.09375 347.835938 47.09375 353.835938 L 47.09375 393.835938 C 47.09375 399.835938 51.09375 403.835938 57.09375 403.835938 L 117.09375 403.835938 L 117.09375 463.835938 C 117.09375 469.835938 121.09375 473.835938 127.09375 473.835938 L 167.09375 473.835938 C 173.09375 473.835938 177.09375 469.835938 177.09375 463.835938 L 177.09375 403.835938 L 237.09375 403.835938 C 243.09375 403.835938 247.09375 399.835938 247.09375 393.835938 L 247.09375 353.835938 C 247.09375 347.835938 243.09375 343.835938 237.09375 343.835938 Z M 227.09375 383.835938 L 167.09375 383.835938 C 161.09375 383.835938 157.09375 387.835938 157.09375 393.835938 L 157.09375 453.835938 L 137.09375 453.835938 L 137.09375 393.835938 C 137.09375 387.835938 133.09375 383.835938 127.09375 383.835938 L 67.09375 383.835938 L 67.09375 363.835938 L 127.09375 363.835938 C 133.09375 363.835938 137.09375 359.835938 137.09375 353.835938 L 137.09375 293.835938 L 157.09375 293.835938 L 157.09375 353.835938 C 157.09375 359.835938 161.09375 363.835938 167.09375 363.835938 L 227.09375 363.835938 Z M 227.09375 383.835938 "/>
</g>
</svg>
